
<svg width="147" height="138" viewBox="0 0 147 138" fill="none" xmlns="http://www.w3.org/2000/svg">
<path d="M72.6922 119.991C100.692 119.991 123.392 97.2906 123.392 69.1906C123.392 41.0906 100.692 18.3906 72.6922 18.3906C44.6922 18.3906 21.9922 41.0906 21.9922 69.1906C21.9922 97.2906 44.6922 119.991 72.6922 119.991Z" fill="#EAEEF9"/>
<path d="M35.392 36.2905H107.492C110.392 36.2905 112.592 38.4905 112.592 41.3905V87.0905C112.592 89.9905 110.392 92.1905 107.492 92.1905H35.392C32.492 92.1905 30.292 89.9905 30.292 87.0905V41.3905C30.292 38.4905 32.692 36.2905 35.392 36.2905Z" fill="url(#paint0_linear_24817_10941)"/>
<path d="M113.992 65.5904V88.0904C113.992 90.9904 111.692 93.3904 108.692 93.3904H34.592C31.692 93.3904 29.292 90.9904 29.292 88.0904V63.6904" stroke="#1676EE" stroke-width="3" stroke-linecap="round" stroke-linejoin="round"/>
<path d="M107.692 52.9902H84.2922C81.9922 52.9902 79.7922 53.7902 78.0922 55.1902L71.9922 60.1902C70.2922 61.5902 68.0922 62.3902 65.7922 62.3902H39.3922C36.6922 62.3902 34.4922 64.5902 34.4922 67.2902C34.4922 67.4902 34.4922 67.7902 34.5922 67.9902L39.4922 93.7902C39.8922 96.1902 41.8922 97.9902 44.3922 97.9902H100.892C103.292 97.9902 105.392 96.2902 105.792 93.8902L112.592 58.5902C113.092 55.8902 111.292 53.4902 108.592 52.9902C108.192 52.9902 107.892 52.9902 107.692 52.9902Z" fill="white"/>
<g filter="url(#filter0_d_24817_10941)">
<path d="M118.193 46.0902H87.7926C84.7926 46.0902 81.9926 47.0902 79.6926 48.9902L71.6926 55.4902C69.4926 57.2902 66.5926 58.3902 63.5926 58.3902H29.1926C25.6926 58.3902 22.8926 61.2902 22.8926 64.6902C22.8926 64.9902 22.8926 65.2902 22.9926 65.5902L29.2926 99.2902C29.7926 102.49 32.4926 104.79 35.5926 104.79H109.193C112.393 104.79 114.993 102.59 115.493 99.3902L124.393 53.2902C124.993 49.7902 122.693 46.6902 119.193 45.9902C118.893 46.0902 118.493 46.0902 118.193 46.0902Z" fill="url(#paint1_linear_24817_10941)"/>
</g>
<path d="M59.3918 80.9906C61.1918 80.9906 62.6918 79.4906 62.6918 77.6906C62.6918 75.8906 61.1918 74.3906 59.3918 74.3906C57.5918 74.3906 56.0918 75.8906 56.0918 77.6906C56.0918 79.4906 57.5918 80.9906 59.3918 80.9906Z" fill="#989FB0"/>
<path d="M85.092 80.8905C86.892 80.8905 88.392 79.3905 88.392 77.5905C88.392 75.7905 86.892 74.2905 85.092 74.2905C83.292 74.2905 81.792 75.7905 81.792 77.5905C81.792 79.4905 83.292 80.8905 85.092 80.8905Z" fill="#989FB0"/>
<path d="M123.092 102.49C122.692 104.19 122.092 105.99 121.392 107.49C119.492 111.19 116.492 114.09 112.792 115.99C108.992 117.89 104.492 118.69 99.9923 117.69C89.3923 115.49 82.5923 105.09 84.7923 94.4903C86.9923 83.8903 97.2923 76.9903 107.892 79.2903C111.692 80.0903 114.992 81.9903 117.792 84.5903C122.492 89.2903 124.492 96.0903 123.092 102.49Z" fill="url(#paint2_linear_24817_10941)"/>
<path d="M110.192 96.7903H105.692V92.2903C105.692 91.3903 104.992 90.5903 103.992 90.5903C103.092 90.5903 102.292 91.2903 102.292 92.2903V96.7903H97.7918C96.8918 96.7903 96.0918 97.4903 96.0918 98.4903C96.0918 99.4903 96.7918 100.19 97.7918 100.19H102.292V104.69C102.292 105.59 102.992 106.39 103.992 106.39C104.892 106.39 105.692 105.69 105.692 104.69V100.19H110.192C111.092 100.19 111.892 99.4903 111.892 98.4903C111.892 97.4903 111.092 96.7903 110.192 96.7903Z" fill="white"/>
<path d="M68.1922 57.2905C64.5922 50.2905 63.7922 41.8905 66.1922 34.2905C68.4922 26.6905 73.9922 20.1905 80.7922 16.4905C82.8922 15.3905 85.2922 14.4905 87.6922 14.3905C90.0922 14.2905 92.6922 15.0905 94.2922 17.0905C95.8922 18.8905 96.1922 21.8905 94.8922 23.8905C93.4922 25.7905 90.6922 26.5905 88.3922 25.9905C84.6922 25.2905 81.6922 22.3905 80.7922 18.8905C79.8922 15.3905 81.0922 11.2905 83.8922 8.9905C85.6922 7.3905 88.1922 6.4905 90.4922 5.7905C101.692 2.4905 113.892 2.0905 125.292 4.5905" stroke="#C9D4E2" stroke-width="2" stroke-miterlimit="10" stroke-dasharray="4 4"/>
<path d="M75.3924 84.4902H69.1924V85.9902H75.3924V84.4902Z" fill="#989FB0"/>
<path d="M131.292 1.99046C131.192 3.49046 131.092 4.89046 129.992 5.19046C128.892 5.49046 128.392 4.49046 127.692 3.09046C126.992 1.79046 127.392 0.390457 128.592 0.0904572C129.692 -0.209543 131.492 0.190457 131.292 1.99046Z" fill="#DAE2EB"/>
<path d="M130.093 9.19047C130.393 7.39047 130.693 6.39047 129.693 5.89047C128.593 5.39047 127.893 6.29047 126.693 7.49047C125.693 8.59047 126.293 10.1905 127.293 10.6905C128.493 11.2905 129.793 10.6905 130.093 9.19047Z" fill="#DAE2EB"/>
<path d="M131.492 5.89055C131.392 6.59055 130.892 7.09055 130.192 7.19055C129.892 7.19055 129.592 7.19055 129.192 7.19055C127.792 6.99055 126.692 6.09055 126.792 5.19055C126.892 4.29055 128.192 3.79055 129.792 3.99055C130.092 3.99055 130.392 4.09055 130.592 4.19055C131.192 4.39055 131.592 5.09055 131.492 5.89055C131.492 5.79055 131.492 5.89055 131.492 5.89055Z" fill="#989FB0"/>
<path d="M19.8926 33.9905C19.8926 32.2905 19.8926 30.5905 21.0926 30.0905C22.3926 29.5905 23.0926 30.7905 24.0926 32.4905C24.9926 33.9905 24.5926 35.5905 23.2926 36.0905C22.1926 36.5905 19.8926 36.2905 19.8926 33.9905Z" fill="#DAE2EB"/>
<path d="M20.5924 25.5906C20.3924 27.6906 20.0924 28.8906 21.3924 29.3906C22.6924 29.8906 23.3924 28.7906 24.6924 27.1906C25.6924 25.7906 24.9924 23.9906 23.6924 23.4906C22.3924 22.9906 20.7924 23.8906 20.5924 25.5906Z" fill="#DAE2EB"/>
<path d="M19.4922 29.5906C19.4922 28.7906 20.0922 28.1906 20.7922 28.0906C21.0922 27.9906 21.4922 27.9906 21.8922 28.0906C23.4922 28.1906 24.8922 29.0906 24.7922 30.0906C24.6922 31.0906 23.3922 31.7906 21.6922 31.5906C21.3922 31.5906 21.0922 31.4906 20.7922 31.3906C19.9922 31.2906 19.4922 30.4906 19.4922 29.5906Z" fill="#989FB0"/>
<path d="M26.292 29.8906C36.792 29.8906 56.192 35.9906 56.492 58.3906" stroke="#C9D4E2" stroke-width="2" stroke-miterlimit="10" stroke-dasharray="4 4"/>
<defs>
<filter id="filter0_d_24817_10941" x="0.892578" y="34.9902" width="145.595" height="102.8" filterUnits="userSpaceOnUse" color-interpolation-filters="sRGB">
<feFlood flood-opacity="0" result="BackgroundImageFix"/>
<feColorMatrix in="SourceAlpha" type="matrix" values="0 0 0 0 0 0 0 0 0 0 0 0 0 0 0 0 0 0 127 0" result="hardAlpha"/>
<feOffset dy="11"/>
<feGaussianBlur stdDeviation="11"/>
<feColorMatrix type="matrix" values="0 0 0 0 0.397708 0 0 0 0 0.47749 0 0 0 0 0.575 0 0 0 0.27 0"/>
<feBlend mode="normal" in2="BackgroundImageFix" result="effect1_dropShadow_24817_10941"/>
<feBlend mode="normal" in="SourceGraphic" in2="effect1_dropShadow_24817_10941" result="shape"/>
</filter>
<linearGradient id="paint0_linear_24817_10941" x1="71.4485" y1="38.2324" x2="71.4485" y2="69.6085" gradientUnits="userSpaceOnUse">
<stop stop-color="#B0BACC"/>
<stop offset="1" stop-color="#969EAE"/>
</linearGradient>
<linearGradient id="paint1_linear_24817_10941" x1="73.657" y1="44.6301" x2="73.657" y2="105.424" gradientUnits="userSpaceOnUse">
<stop stop-color="#FDFEFF"/>
<stop offset="0.9964" stop-color="#ECF0F5"/>
</linearGradient>
<linearGradient id="paint2_linear_24817_10941" x1="84.361" y1="98.4898" x2="123.538" y2="98.4898" gradientUnits="userSpaceOnUse">
<stop stop-color="#B0BACC"/>
<stop offset="1" stop-color="#969EAE"/>
</linearGradient>
</defs>
</svg>
